<?xml version="1.0" standalone="no"?>
<!DOCTYPE svg PUBLIC "-//W3C//DTD SVG 20010904//EN"
 "http://www.w3.org/TR/2001/REC-SVG-20010904/DTD/svg10.dtd">
<svg version="1.0" xmlns="http://www.w3.org/2000/svg"
 width="512.000000pt" height="512.000000pt" viewBox="0 0 512.000000 512.000000"
 preserveAspectRatio="xMidYMid meet">

<g transform="translate(0.000000,512.000000) scale(0.100000,-0.100000)"
fill="#000000" stroke="none">
<path d="M669 5100 c-92 -19 -227 -77 -306 -131 -170 -116 -301 -316 -344
-523 -18 -87 -19 -166 -19 -1886 0 -1720 1 -1799 19 -1886 43 -207 174 -407
344 -523 82 -56 214 -112 311 -132 87 -18 166 -19 1886 -19 2028 0 1886 -5
2065 79 206 96 348 245 433 451 65 160 62 58 62 2030 0 1972 3 1870 -62 2030
-87 213 -254 380 -468 468 -160 65 -56 62 -2039 61 -1696 0 -1801 -1 -1882
-19z"/>
</g>
</svg>
