<?xml version="1.0" standalone="no"?>
<!DOCTYPE svg PUBLIC "-//W3C//DTD SVG 20010904//EN"
 "http://www.w3.org/TR/2001/REC-SVG-20010904/DTD/svg10.dtd">
<svg version="1.0" xmlns="http://www.w3.org/2000/svg"
 width="1678.000000pt" height="1120.000000pt" viewBox="0 0 1678.000000 1120.000000"
 preserveAspectRatio="xMidYMid meet">

<g transform="translate(0.000000,1120.000000) scale(0.100000,-0.100000)"
fill="#000000" stroke="none">
<path d="M356 11189 c-114 -27 -253 -135 -305 -236 -55 -108 -51 283 -51
-5353 0 -3548 4 -5209 11 -5240 19 -81 68 -166 133 -228 69 -66 119 -95 203
-117 51 -13 988 -15 8043 -15 5474 0 7999 4 8030 11 118 27 256 133 309 236
55 108 51 -283 51 5353 0 3548 -4 5209 -11 5240 -19 81 -68 166 -133 228 -69
66 -119 95 -203 117 -51 13 -986 15 -8048 14 -4813 -1 -8006 -5 -8029 -10z
m667 -260 c53 -14 117 -80 117 -119 l0 -30 -34 20 c-28 15 -37 16 -45 6 -6 -7
-8 -16 -4 -19 3 -4 2 -7 -3 -7 -6 0 -10 -19 -10 -42 0 -38 -2 -42 -34 -54
l-35 -12 32 -1 c26 -1 36 -7 49 -32 16 -33 12 -45 -20 -51 -27 -4 -32 -28 -7
-35 25 -6 28 -23 5 -23 -13 0 -15 -7 -9 -38 5 -29 2 -42 -9 -52 -14 -11 -16
-8 -17 21 l-1 34 -10 -35 c-13 -46 -53 -88 -97 -100 -54 -15 -91 13 -124 95
-15 36 -26 78 -26 93 1 20 2 22 6 7 3 -11 10 -24 15 -30 7 -7 9 -2 4 15 -3 14
-9 43 -13 64 -5 32 -3 38 8 31 11 -7 12 -6 2 6 -8 9 -9 20 -3 29 6 8 10 31 11
50 1 26 3 30 7 15 5 -15 18 -21 47 -23 l39 -3 -28 26 c-29 27 -29 31 12 73 6
7 12 18 12 23 0 5 7 9 15 9 8 0 15 5 15 11 0 5 6 7 13 3 10 -6 10 -4 0 7 -7 7
-13 22 -13 32 0 18 -1 18 -25 3 -14 -9 -25 -12 -25 -7 0 19 72 49 120 50 14 1
42 -4 63 -10z m103 -316 c-11 -11 -17 4 -9 23 7 18 8 18 11 1 2 -10 1 -21 -2
-24z m-152 -264 c-3 -5 -10 -7 -15 -3 -5 3 -7 10 -3 15 3 5 10 7 15 3 5 -3 7
-10 3 -15z m-161 -169 c10 -26 16 -30 47 -29 19 0 67 8 105 18 75 20 105 15
105 -19 0 -37 -41 -59 -145 -75 l-39 -7 24 -19 c14 -11 39 -26 55 -34 27 -12
5 -13 -197 -14 -170 -1 -228 2 -228 11 0 17 115 126 137 130 10 1 29 -5 43
-15 13 -9 29 -17 35 -17 5 0 -5 9 -22 20 -47 28 -41 60 12 73 45 11 57 7 68
-23z m284 -176 c-3 -3 -12 -4 -19 -1 -8 3 -5 6 6 6 11 1 17 -2 13 -5z m-84
-424 c11 -43 -40 -59 -70 -23 -19 24 -4 43 32 43 24 0 34 -5 38 -20z m-165
-54 c61 -6 100 -31 118 -77 18 -44 39 -59 83 -59 16 0 33 -5 37 -12 5 -7 3 -8
-6 -3 -10 6 -12 4 -7 -10 6 -15 3 -17 -24 -11 -17 3 -42 6 -55 6 -18 0 -29 9
-41 35 -20 43 -28 44 -48 5 -9 -16 -20 -30 -25 -30 -6 0 -9 -3 -9 -7 3 -20 -2
-34 -11 -28 -5 3 -10 2 -10 -3 0 -5 12 -15 28 -21 15 -6 40 -22 56 -34 l29
-23 -29 -65 c-31 -71 -45 -89 -67 -89 -12 0 -13 6 -6 28 17 53 21 62 28 62 3
0 7 13 8 29 1 21 -4 32 -22 41 -13 7 -22 18 -18 23 3 6 2 7 -4 4 -12 -7 -66
27 -56 36 3 4 1 7 -5 7 -19 0 -15 12 29 84 33 54 38 70 28 77 -23 15 -49 10
-87 -16 -42 -29 -62 -32 -62 -10 0 18 68 61 88 57 9 -2 11 1 6 9 -4 7 -3 10 4
5 6 -3 28 -8 50 -10z m-75 -292 c-16 -25 -30 -34 -17 -11 6 10 4 10 -7 0 -8
-8 -41 -13 -81 -13 -54 0 -70 3 -75 16 -9 25 17 35 84 32 54 -3 63 -1 67 16 5
19 6 19 25 2 19 -17 19 -20 4 -42z m212 -764 c0 -3 8 -16 18 -30 9 -13 17 -32
17 -41 0 -9 11 -28 25 -43 22 -24 25 -36 25 -102 0 -48 -4 -73 -10 -69 -6 4
-10 -7 -10 -27 0 -18 -4 -37 -8 -43 -10 -14 -32 -17 -32 -4 0 5 -4 8 -9 4 -5
-3 -11 9 -13 27 l-3 33 -137 3 -138 3 0 -25 c0 -13 -3 -31 -6 -40 -7 -18 -34
-22 -34 -5 0 5 -4 7 -10 4 -6 -4 -10 7 -10 25 0 18 -6 33 -15 36 -11 5 -15 24
-15 80 0 41 4 74 9 74 5 0 17 18 27 40 10 22 22 40 28 40 5 0 7 3 3 6 -3 4 0
19 8 35 l15 28 137 -2 c76 -1 138 -4 138 -7z m58 -1052 c-40 -41 -41 -45 -36
-94 5 -48 3 -54 -29 -89 -40 -44 -72 -42 -38 2 30 39 6 60 -32 27 -14 -14 -20
-14 -33 -4 -13 11 -12 15 5 37 31 39 5 60 -32 26 -13 -11 -22 -13 -29 -6 -7 7
4 22 32 48 40 35 44 37 93 32 49 -6 52 -4 81 28 17 19 37 35 45 35 8 0 -3 -18
-27 -42z m-213 -151 c0 -8 -9 -22 -20 -32 -19 -17 -19 -19 -3 -37 16 -18 17
-18 38 2 12 11 27 20 33 20 19 0 14 -25 -8 -45 -16 -14 -18 -21 -8 -33 10 -12
6 -20 -25 -48 -38 -35 -85 -45 -117 -24 -11 7 -26 -1 -57 -32 -24 -23 -45 -39
-49 -35 -4 3 12 24 35 46 36 34 40 43 32 60 -20 36 -12 70 25 111 27 29 40 37
49 30 8 -7 17 -4 30 10 21 23 45 26 45 7z m260 -912 c0 -8 7 -15 15 -15 11 0
15 -11 15 -40 l0 -40 -170 0 c-93 0 -170 4 -170 9 0 4 5 22 11 40 l11 31 129
0 c108 0 129 2 129 15 0 8 7 15 15 15 8 0 15 -7 15 -15z m-394 -52 c-11 -32
-18 -39 -44 -41 -27 -3 -32 0 -32 17 0 30 30 59 62 60 27 1 27 1 14 -36z m64
28 c0 -19 -23 -71 -31 -71 -12 0 -11 10 2 49 10 28 29 43 29 22z m320 -109 c0
-4 -7 -18 -16 -30 -14 -20 -24 -22 -99 -22 l-84 0 -3 -37 c-3 -38 -4 -38 -49
-41 -50 -3 -59 -14 -59 -72 0 -38 -18 -50 -77 -50 -40 0 -55 4 -60 16 -3 9 -1
59 6 112 11 85 11 96 -3 104 -41 23 -5 28 214 28 127 0 230 -3 230 -8z m-104
-981 c48 -22 112 -85 120 -118 7 -27 -24 -78 -68 -113 -65 -51 -188 -65 -264
-31 -48 22 -112 85 -120 118 -11 44 58 120 133 148 55 20 150 18 199 -4z m-8
-1186 c1 -131 -1 -242 -5 -246 -5 -4 -69 3 -143 17 -74 13 -136 24 -137 24 -2
0 -3 90 -3 200 l0 199 33 6 c17 3 77 14 132 25 55 10 105 17 110 16 6 -2 11
-93 13 -241z m92 -5 c0 -193 -1 -200 -20 -200 -19 0 -20 7 -20 200 0 193 1
200 20 200 19 0 20 -7 20 -200z m-170 -880 c0 -12 10 -20 31 -24 39 -7 98 -68
106 -107 3 -18 12 -29 23 -29 9 0 19 -3 23 -6 10 -11 -5 -34 -23 -34 -12 0
-20 -10 -24 -31 -7 -39 -68 -98 -107 -106 -18 -3 -29 -12 -29 -23 0 -9 -3 -19
-6 -23 -11 -10 -34 5 -34 23 0 12 -10 20 -31 24 -39 7 -98 68 -106 107 -3 18
-12 29 -23 29 -9 0 -19 3 -23 6 -10 11 5 34 23 34 12 0 20 10 24 31 7 39 68
98 107 106 18 3 29 12 29 23 0 9 3 19 6 23 11 10 34 -5 34 -23z m10 -1021 c0
-28 16 -55 65 -114 61 -73 79 -112 79 -175 1 -104 -70 -175 -175 -175 -74 0
-120 31 -156 103 -28 58 -27 101 4 170 15 33 17 35 20 14 3 -13 16 -28 29 -34
40 -18 56 7 58 89 1 60 5 75 29 106 32 42 47 47 47 16z"/>
<path d="M800 10681 c0 -4 12 -7 28 -5 15 2 21 1 15 -2 -7 -3 -13 -13 -13 -22
1 -15 2 -15 15 2 8 10 12 23 9 27 -7 12 -54 12 -54 0z"/>
<path d="M772 10630 c-10 -16 -10 -20 2 -20 19 0 27 13 17 28 -4 8 -11 5 -19
-8z"/>
<path d="M977 10644 c7 -3 9 -12 6 -20 -3 -8 0 -14 6 -14 6 0 11 7 11 16 0 14
2 15 18 3 15 -13 16 -12 3 4 -7 9 -23 17 -35 16 -11 0 -16 -3 -9 -5z"/>
<path d="M846 10595 c-44 -39 -38 -45 12 -15 17 11 32 27 32 35 0 19 2 20 -44
-20z"/>
<path d="M910 10581 c0 -5 9 -19 20 -32 16 -20 19 -21 20 -6 0 9 -4 17 -10 17
-5 0 -10 7 -10 15 0 8 -4 15 -10 15 -5 0 -10 -4 -10 -9z"/>
<path d="M980 10580 c0 -5 5 -10 11 -10 5 0 7 5 4 10 -3 6 -8 10 -11 10 -2 0
-4 -4 -4 -10z"/>
<path d="M790 10486 c0 -7 7 -19 15 -26 11 -9 15 -9 15 -1 0 7 5 9 10 6 6 -3
10 -2 10 3 0 5 -11 14 -25 20 -20 9 -25 9 -25 -2z"/>
<path d="M895 10450 c-3 -5 -4 -10 -1 -10 2 0 11 -2 19 -5 8 -4 14 0 14 10 0
17 -22 21 -32 5z"/>
<path d="M718 8453 c-14 -17 -38 -76 -38 -94 0 -5 77 -9 170 -9 94 0 170 2
170 5 0 2 -11 29 -24 60 l-25 55 -119 0 c-101 0 -121 -3 -134 -17z"/>
<path d="M657 8316 c-37 -29 -20 -76 28 -76 24 0 37 26 28 59 -6 23 -37 33
-56 17z"/>
<path d="M984 8312 c-15 -10 -10 -52 7 -63 38 -24 79 13 57 54 -9 17 -44 23
-64 9z"/>
<path d="M772 6158 c-7 -7 -8 -17 -1 -30 15 -27 29 -22 29 12 0 32 -9 37 -28
18z"/>
<path d="M820 6151 c0 -21 23 -45 33 -34 4 3 7 17 7 30 0 16 -6 23 -20 23 -13
0 -20 -7 -20 -19z"/>
<path d="M827 5152 c-36 -40 -9 -102 45 -102 51 0 78 69 40 103 -24 22 -65 21
-85 -1z"/>
<path d="M844 4045 c-7 -18 3 -35 21 -35 15 0 24 19 18 38 -6 17 -32 15 -39
-3z"/>
<path d="M784 3076 c-36 -36 -44 -66 -19 -66 8 0 15 -9 15 -20 0 -11 -7 -20
-15 -20 -25 0 -17 -30 19 -66 36 -36 66 -44 66 -19 0 8 9 15 20 15 11 0 20 -7
20 -15 0 -25 30 -17 66 19 36 36 44 66 19 66 -8 0 -15 9 -15 20 0 11 7 20 15
20 25 0 17 30 -19 66 -36 36 -66 44 -66 19 0 -8 -9 -15 -20 -15 -11 0 -20 7
-20 15 0 25 -30 17 -66 -19z m105 -46 c36 -19 36 -61 0 -81 -46 -24 -86 54
-41 80 21 13 20 13 41 1z"/>
<path d="M890 1900 c0 -45 -33 -73 -76 -65 -33 6 -34 5 -34 -28 0 -48 40 -87
90 -87 84 0 118 93 64 172 -32 46 -44 48 -44 8z"/>
</g>
</svg>
